Coordinates
version=1
nRows=24
nColumns=24
inDegrees=yes

Units are S.I. units (second, meters, Newtons, ...)
Angles are in degrees.

endheader
time	pelvis_tilt	pelvis_list	pelvis_rotation	pelvis_tx	pelvis_ty	pelvis_tz	hip_flexion_r	hip_adduction_r	hip_rotation_r	knee_angle_r	ankle_angle_r	subtalar_angle_r	mtp_angle_r	hip_flexion_l	hip_adduction_l	hip_rotation_l	knee_angle_l	ankle_angle_l	subtalar_angle_l	mtp_angle_l	lumbar_extension	lumbar_bending	lumbar_rotation
      0.68383333	     -4.33198153	     -2.04050494	      4.39510617	     -0.45758761	      0.89296947	      0.33891413	     19.97617114	      7.10206630	     -2.84841236	    -29.12669140	     16.78626881	     -0.67788774	      3.61695274	     20.19444799	     -5.07183751	     -4.58942668	    -76.98185076	      0.46072904	     -8.68879577	     -1.88743725	     -4.22658310	      3.37439582	     -0.43395878
      0.68800000	     -4.49221442	     -1.94278276	      4.36672060	     -0.45249479	      0.89393423	      0.33906280	     19.51755502	      7.03148821	     -2.78380354	    -28.61517992	     16.83404817	     -0.56883529	      3.62318991	     21.16425809	     -4.84502033	     -4.55776823	    -77.05755620	      0.72823967	     -8.61931813	     -1.88384252	     -4.09940537	      3.26359082	     -0.22399427
      0.69216667	     -4.58509419	     -1.80784592	      4.31494522	     -0.44729186	      0.89506290	      0.33922620	     18.95181081	      6.93154514	     -2.69870741	    -28.05372614	     16.90254376	     -0.46920402	      3.62747498	     22.00133339	     -4.58965273	     -4.57596415	    -76.99299524	      0.94260154	     -8.57658855	     -1.87637313	     -4.01842737	      3.10210422	     -0.11209453
      0.69633333	     -4.68660662	     -1.67929706	      4.25326397	     -0.44210375	      0.89614938	      0.33938937	     18.39713207	      6.83665875	     -2.61564627	    -27.48767945	     16.94340700	     -0.35550510	      3.63208272	     22.83406919	     -4.33056107	     -4.58134481	    -76.86107398	      1.18337660	     -8.48322139	     -1.86308033	     -3.93250315	      2.94998040	      0.03626471
      0.70050000	     -4.79128525	     -1.55968209	      4.18197994	     -0.43693187	      0.89719813	      0.33957523	     17.85045896	      6.75296579	     -2.52192171	    -26.92248822	     16.93791054	     -0.22828971	      3.64223683	     23.65529788	     -4.08617500	     -4.58806537	    -76.66400096	      1.48829647	     -8.24671313	     -1.82914572	     -3.87088712	      2.81616485	      0.33794990
      0.70466667	     -4.85062110	     -1.42053169	      4.08999862	     -0.43169272	      0.89833633	      0.33977823	     17.23145511	      6.65595787	     -2.40844910	    -26.31963856	     16.95117388	     -0.11718976	      3.65475477	     24.38337616	     -3.83109440	     -4.62863027	    -76.35782761	      1.73107834	     -8.06871702	     -1.78706061	     -3.84123985	      2.65222746	      0.57049689
      0.70883333	     -4.89216142	     -1.28409952	      3.99091965	     -0.42643769	      0.89948303	      0.33999137	     16.58571554	      6.56175367	     -2.29783314	    -25.69850815	     16.95819367	     -0.00268378	      3.66991015	     25.06808289	     -3.58280948	     -4.67282955	    -75.97345233	      1.97308221	     -7.87125405	     -1.73216557	     -3.83290554	      2.49100568	      0.79059343
      0.71300000	     -4.91145806	     -1.15102016	      3.88374125	     -0.42116104	      0.90063673	      0.34022071	     15.90653686	      6.47394057	     -2.17693777	    -25.05685101	     16.97363317	      0.10914020	      3.69176564	     25.70512597	     -3.34521152	     -4.72247381	    -75.51764185	      2.21065146	     -7.65716416	     -1.65407337	     -3.84532203	      2.33400951	      1.02967143
      0.71716667	     -4.91801353	     -1.00938090	      3.76809393	     -0.41587049	      0.90179266	      0.34044669	     15.20999801	      6.37372346	     -2.06155470	    -24.40630427	     16.95591694	      0.23185072	      3.71503000	     26.29950750	     -3.09841645	     -4.77941676	    -74.98087427	      2.44615054	     -7.43718483	     -1.56633457	     -3.86987680	      2.17373887	      1.24239221
      0.72133333	     -4.92122254	     -0.84853464	      3.63744651	     -0.41058086	      0.90293439	      0.34067437	     14.51513251	      6.24678086	     -1.95251023	    -23.76399606	     16.88864120	      0.38111058	      3.73006171	     26.86024101	     -2.83207282	     -4.84850692	    -74.36135429	      2.66612601	     -7.22085471	     -1.50186597	     -3.90161193	      1.99310645	      1.41074300
      0.72550000	     -4.87276755	     -0.71987775	      3.50818287	     -0.40524808	      0.90410251	      0.34093868	     13.74024822	      6.16497918	     -1.82436692	    -23.07078882	     16.89094284	      0.49262961	      3.75910855	     27.34613443	     -2.61859037	     -4.91696274	    -73.68952310	      2.90506854	     -6.97307899	     -1.39689278	     -3.98781535	      1.84329262	      1.67130403
      0.72966667	     -4.82632547	     -0.57481807	      3.36790046	     -0.39992299	      0.90523879	      0.34119587	     12.97398204	      6.05892378	     -1.70098261	    -22.38617288	     16.83887551	      0.61906977	      3.78917735	     27.80715095	     -2.38604599	     -4.99438512	    -72.94241400	      3.12463798	     -6.74104975	     -1.28698249	     -4.07250870	      1.67632554	      1.89260607
      0.73383333	     -4.76137886	     -0.43446612	      3.22164352	     -0.39458932	      0.90635353	      0.34146962	     12.18366275	      5.95773611	     -1.57348563	    -21.68926074	     16.78218701	      0.74414129	      3.82435767	     28.22579077	     -2.16649545	     -5.07698260	    -72.13466739	      3.34077145	     -6.51190299	     -1.16527740	     -4.17862526	      1.51306245	      2.11696702
      0.73800000	     -4.70522259	     -0.27205645	      3.06183569	     -0.38927143	      0.90741489	      0.34173474	     11.41983390	      5.82376131	     -1.45777026	    -21.02273368	     16.68828531	      0.89600606	      3.84772159	     28.62568281	     -1.92127644	     -5.17028903	    -71.25395952	      3.53544665	     -6.29540429	     -1.08195338	     -4.27593734	      1.32945463	      2.28826013
      0.74216667	     -4.59934135	     -0.15072772	      2.91482378	     -0.38391911	      0.90847717	      0.34202655	     10.57462219	      5.74113066	     -1.33100246	    -20.29608856	     16.65632530	      1.00897735	      3.88795521	     28.96011689	     -1.73481206	     -5.25176940	    -70.33701154	      3.74314950	     -6.08589553	     -0.96041604	     -4.42071630	      1.18021991	      2.53413179
      0.74633333	     -4.50195545	     -0.01455402	      2.75365173	     -0.37858219	      0.90947874	      0.34231458	      9.75320157	      5.63589550	     -1.20405547	    -19.59401724	     16.58115093	      1.13175727	      3.92956543	     29.27683037	     -1.53152820	     -5.34185808	    -69.35245402	      3.93183550	     -5.88685728	     -0.84037141	     -4.55963242	      1.02163427	      2.74709903
      0.75050000	     -4.39791385	      0.12079022	      2.58900607	     -0.37325820	      0.91042477	      0.34260843	      8.93024240	      5.52810045	     -1.07940779	    -18.89772313	     16.50637088	      1.25566617	      3.97069723	     29.56694554	     -1.33299369	     -5.43384455	    -68.31384385	      4.10728611	     -5.70722250	     -0.72915472	     -4.70775856	      0.86107578	      2.94991157
      0.75466667	     -4.28975444	      0.24944862	      2.42310712	     -0.36793783	      0.91130906	      0.34290314	      8.10517149	      5.42433338	     -0.95281886	    -18.20160471	     16.42828625	      1.38023014	      4.01721873	     29.83358479	     -1.14203418	     -5.51993210	    -67.22566651	      4.27262305	     -5.54900501	     -0.61442843	     -4.86076324	      0.70730484	      3.15747048
      0.75883333	     -4.19811150	      0.39468375	      2.24464919	     -0.36263475	      0.91210800	      0.34319232	      7.32000479	      5.29302110	     -0.84425123	    -17.54613595	     16.32147051	      1.52580097	      4.04716939	     30.09243303	     -0.93732067	     -5.62344625	    -66.07410874	      4.41183128	     -5.40308572	     -0.54246705	     -4.99051889	      0.53469585	      3.31462246
      0.76300000	     -4.08384486	      0.51477567	      2.07722902	     -0.35732967	      0.91285628	      0.34348027	      6.50077824	      5.18817565	     -0.73495424	    -16.86678116	     16.25355108	      1.66186154	      4.08005944	     30.31447055	     -0.75958445	     -5.70595114	    -64.88693887	      4.54548863	     -5.28850444	     -0.47402350	     -5.14548933	      0.38799543	      3.49958772
      0.76716667	     -3.95727137	      0.60678525	      1.91917431	     -0.35202798	      0.91353393	      0.34376987	      5.65912805	      5.11538095	     -0.61663481	    -16.16338654	     16.21809777	      1.76176089	      4.13299301	     30.51405322	     -0.61328415	     -5.77123066	    -63.67134916	      4.66937924	     -5.19690417	     -0.37904049	     -5.31436735	      0.27491385	      3.72364850
      0.77133333	     -3.86628688	      0.72854778	      1.74023335	     -0.34675183	      0.91410140	      0.34406232	      4.89232225	      4.99969325	     -0.51135738	    -15.53120447	     16.12211504	      1.89630714	      4.17156611	     30.72032357	     -0.43837420	     -5.85730674	    -62.38390588	      4.75948724	     -5.11650790	     -0.31491289	     -5.44041215	      0.12502869	      3.88435291
      0.77550000	     -3.76345696	      0.82604698	      1.57301933	     -0.34147506	      0.91459610	      0.34434055	      4.10697157	      4.90798552	     -0.41430654	    -14.88447161	     16.06739819	      2.02885797	      4.21287142	     30.90284671	     -0.28743477	     -5.92555305	    -61.06736247	      4.83425939	     -5.06934838	     -0.25659836	     -5.57977680	      0.00219088	      4.05851866
      0.77966667	     -3.66342988	      0.90344350	      1.41487495	     -0.33620808	      0.91499302	      0.34460675	      3.32382589	      4.83584926	     -0.32024708	    -14.23327613	     16.04267671	      2.14547464	      4.27065804	     31.07876755	     -0.15637664	     -5.97889110	    -59.72318933	      4.88945622	     -5.05603540	     -0.18734170	     -5.72024636	     -0.09661079	      4.25523337
